<svg id="Layer_4" data-name="Layer 4" xmlns="http://www.w3.org/2000/svg" viewBox="0 0 40.5 78.1">
  <defs>
    <style>
      .cls-1 {
        fill: #a3a3a3;
      }

      .cls-2 {
        fill: #999;
      }

      .cls-3 {
        fill: #8c8c8c;
      }

      .cls-4 {
        fill: #707070;
      }

      .cls-5 {
        fill: #648eb0;
      }

      .cls-6 {
        fill: #4f798c;
      }

      .cls-7 {
        fill: #aaa;
      }

      .cls-8 {
        fill: #afafaf;
      }

      .cls-9 {
        fill: #444;
      }

      .cls-10 {
        fill: #73a5c6;
      }
    </style>
  </defs>
  <path class="cls-1" d="M27.1,36.5l-1.2.6c-.1,1.8-.2,3.3-.2,4.6s0,1.6.1,3.3.1,1.3.1,2c.4,4.6.7,6.2.6,8.4a9.5,9.5,0,0,1-.1,1.4s-.1,1.4-.1,2.8,0,2.5.1,6.5.5,5.2.5,7.9-.1,2.7.7,3.4,2.6.5,3.4.3a10,10,0,0,0,.7-3.6V72.7c0-1.1.1-2,.1-2.6.1-2.5-.1-2.1-.1-6.7s.1-4.3-.2-6-.2-1.1-.3-2a19.3,19.3,0,0,1,.1-3.6c.2-1.7.3-3.3.4-5h0V39.5c.1-1.7.2-3.2-.5-4.5a1.4,1.4,0,0,0-.8-.7c-.2,0-.6-.1-1.9.9Z" transform="translate(-1.1 -0.6)"/>
  <path class="cls-1" d="M21.7,35.5a3.1,3.1,0,0,1,1.2,1.3c.4.8.3,1.3.2,3.9s0,1.7-.1,3.3-.1,1.3-.1,2c-.4,4.6-.7,6.2-.6,8.4a9.5,9.5,0,0,0,.1,1.4s.1,1.4.1,2.8,0,2.5-.1,6.5-.5,5.2-.5,7.9.1,2.7-.7,3.4-2.6.5-3.4.3A9.4,9.4,0,0,1,17,73V71.6c0-1.1-.1-2-.1-2.6-.1-2.5.1-2.1.1-6.7s-.1-4.3.2-6,.2-1.1.3-2a19.3,19.3,0,0,0-.1-3.6c-.2-1.7-.3-3.3-.4-5h0V38.4c-.1-1.7-.2-3.2.5-4.5a1.4,1.4,0,0,1,.8-.7c.2,0,.6-.1,1.9.9A8.4,8.4,0,0,1,21.7,35.5Z" transform="translate(-1.1 -0.6)"/>
  <path class="cls-2" d="M21.2,37.2v6.6c0,1.4.2,3.6.2,3.7h0c0,2.1-.1,3.8-.1,4.4s.1,1.7.1,4.4,0,2.9-.1,5.2-.2,4.8-.3,6.7.2,5-.4,7.4c0,.2-.2.9.1,1.1h.5c.7-.3.6-1.7.6-4.3s.1-2.2.2-4.1.1-1.5.2-2.7,0-1,.1-2.9.1-2.3.1-3-.1-2-.1-2.7-.1-1.1-.1-1.6a36.4,36.4,0,0,1,.1-4.6c0-.8.1-1.7.2-2.8a21.1,21.1,0,0,1,.3-2.1,28.5,28.5,0,0,0,.2-3.3V38.1A7.6,7.6,0,0,0,21.2,37.2Z" transform="translate(-1.1 -0.6)"/>
  <path class="cls-2" d="M30.1,38.4c-.1.9-.1,2.2-.1,3.8s.1,3,.2,5.2c.2,4.3,0,4.7.2,9,.1,2.1.2,3.4.3,4.3a97.9,97.9,0,0,1-.2,15.1c.1.3.3.9.5.9s.4-.6.5-1,.1-.4.2-1.2v-.9c0-1.2.1-2.7.1-5.3s-.1-4.3-.1-6.4V58.6c0-.3-.1-.5-.1-1.1s-.2-1.4-.2-1.5a16.6,16.6,0,0,1,.1-4.4c.1-1.1.1-.9.2-2.1l.2-3.5V38Z" transform="translate(-1.1 -0.6)"/>
  <path class="cls-3" d="M31.9,38.5a3.6,3.6,0,0,1-1.6,1.3l-.6.2a2.8,2.8,0,0,1-2-.3,4,4,0,0,1-1.8-1.4,2.8,2.8,0,0,1,.1-.9l.3-.2a4.7,4.7,0,0,0,1,.9,3.8,3.8,0,0,0,1.8.8,3,3,0,0,0,1.5-.2,2.3,2.3,0,0,0,.9-.6c.1-.1.1-.2.2-.5L32,37v1.2A.4.4,0,0,0,31.9,38.5Z" transform="translate(-1.1 -0.6)"/>
  <path class="cls-3" d="M23.1,38.4a3.9,3.9,0,0,1-2.4,1.3,4.9,4.9,0,0,1-2.1-.3l-.7-.4a5.6,5.6,0,0,1-1.1-1.1v-2a3.5,3.5,0,0,0,1.3,1.9,3.6,3.6,0,0,0,3.5.6,3.5,3.5,0,0,0,.9-.6l.4-.3c.1-.2.2-.4.2-.3V38C23.2,38.1,23.2,38.2,23.1,38.4Z" transform="translate(-1.1 -0.6)"/>
  <path class="cls-4" d="M22.3,56.1H19.7L17.3,56v.2l2.1.3h3A.8.8,0,0,1,22.3,56.1Z" transform="translate(-1.1 -0.6)"/>
  <path class="cls-4" d="M31.4,56.3H28.8l-2.4-.2v.3l2,.2h2.9C31.5,56.5,31.5,56.4,31.4,56.3Z" transform="translate(-1.1 -0.6)"/>
  <path class="cls-5" d="M27.8,32.9a3.7,3.7,0,0,1,3,.5,3.4,3.4,0,0,1,1.1,4,3.2,3.2,0,0,1-2.7,1.8,3.1,3.1,0,0,1-1.5-.2,3.5,3.5,0,0,1-2.2-2.8A3.3,3.3,0,0,1,27.8,32.9Z" transform="translate(-1.1 -0.6)"/>
  <path class="cls-5" d="M19.1,32.2a3.7,3.7,0,0,1,3.2.5,3.4,3.4,0,0,1,1.1,4.2,3.1,3.1,0,0,1-2.8,1.9,3.7,3.7,0,0,1-3.9-3.2A3.4,3.4,0,0,1,19.1,32.2Z" transform="translate(-1.1 -0.6)"/>
  <path class="cls-6" d="M30.3,32.9c.3.1.1,1.9-1,2.9s-4.9,1.1-4.9.8,1.7-.1,3.5-1.4S30,32.7,30.3,32.9Z" transform="translate(-1.1 -0.6)"/>
  <path class="cls-6" d="M18.6,32.3c-.3.1-.2,1.7.7,2.9s3.9,2,4,1.7-1.1-.6-2.5-2S18.9,32.2,18.6,32.3Z" transform="translate(-1.1 -0.6)"/>
  <path class="cls-1" d="M21.6,2.2A5.1,5.1,0,0,0,20.7,4a8.4,8.4,0,0,0-.5,3.6,8.4,8.4,0,0,0,.9,3.6,4.9,4.9,0,0,0,.6.9l.4.5a1.2,1.2,0,0,1-.1.8,2.5,2.5,0,0,1-.5,1.1h-.1a1.3,1.3,0,0,1-1.1.4,23.5,23.5,0,0,1-2.6-.1,1.9,1.9,0,0,0-1,.2,1.8,1.8,0,0,0-.8,1,15,15,0,0,0-.9,1.8l-1.1,2.8-.4,1.4c0,.2-.1.4-.2,1s-.3,1.4-.4,2a14.6,14.6,0,0,1-.4,1.7,11.1,11.1,0,0,1-.4,1.3l-1.5-2.4L8.7,23a36.8,36.8,0,0,0-2.6-3.1L4.9,18.7l-.7.5-.3.4.5.4-1.5-.4H1.6a1.5,1.5,0,0,0-.4.6,2.3,2.3,0,0,0-.1,1.1l4.8,1.2,1,1.5,1.3,2.3c.5,1,1.2,2.3,2,4.1a4.1,4.1,0,0,0,.6,1.1,2.5,2.5,0,0,0,1.9.9,2.5,2.5,0,0,0,1.9-.8c.5-.7,0-1.2.3-2.7a9,9,0,0,1,.5-1.6,48.3,48.3,0,0,0,2.5-6.1,12,12,0,0,0,.5-2.6c-.1.5-.2,1.2-.4,2.1s-.4,2.5-.5,3.3a16.9,16.9,0,0,0-.1,3.2,17.7,17.7,0,0,0,.7,3.3,13.5,13.5,0,0,0,.8,1.9,9.1,9.1,0,0,0,1.9,3,5.7,5.7,0,0,0,1.9,1.1,6.5,6.5,0,0,0,2.5.3,7.3,7.3,0,0,0,3.5-1.4,12.8,12.8,0,0,0,1.6-1.9.1.1,0,0,1,.1-.1h0a3.9,3.9,0,0,1,.2-.6,19.1,19.1,0,0,0,.5-2.1c0-.2.1-.4.1-.6h0v-.2a28.3,28.3,0,0,0,.4-4,12.9,12.9,0,0,0,0-2.9s-.1-.7-.2-2.1-.1-.6,0-.6.3.5.6,1.1l.8,1.3a17.7,17.7,0,0,0,1.8,2.2c.2.3,2.9,3.2,2.8,3.4l-.3.2c-.8.2-.6.4-1.7.9l-2,.5a8.1,8.1,0,0,1-2.2,0l-.6,2.6,3-.2a18.9,18.9,0,0,0,3.9-.9,5.6,5.6,0,0,0,2.6-1.7,4.3,4.3,0,0,0,.4-.7,3.9,3.9,0,0,0-.4-2.8,11.5,11.5,0,0,0-.8-1.5l-1.2-1.9s-.8-1-2.1-2.9L34.7,18a5.9,5.9,0,0,0-1.4-1.8l-1-.7a8.4,8.4,0,0,0-2.1-.2l-1.6-.2-1.4-.5a2.4,2.4,0,0,1-.8-1.6l.8-.8a9.1,9.1,0,0,0,1.9-3.5,7.5,7.5,0,0,0,0-4,4.8,4.8,0,0,0-1.3-2.9A7,7,0,0,0,26,.9,4.1,4.1,0,0,0,23.4.8,4,4,0,0,0,21.6,2.2Z" transform="translate(-1.1 -0.6)"/>
  <path class="cls-2" d="M8,25.7l1.4,1.9c.8,1.1,1.3,1.7,1.1,2s-.4.2-.7.1l-.6-1.3a56.7,56.7,0,0,0-3.1-5.5A32.7,32.7,0,0,0,8,25.7Z" transform="translate(-1.1 -0.6)"/>
  <path class="cls-3" d="M11.9,27.8c0-.1-.1-.1-.1-.2a1.6,1.6,0,0,0-1,.4,2.5,2.5,0,0,0-.9.9,3.1,3.1,0,0,0-.2.7v.2a.4.4,0,0,0,.3.4c.2,0,.2-.9.7-1.5A2.2,2.2,0,0,1,11.9,27.8Z" transform="translate(-1.1 -0.6)"/>
  <path class="cls-2" d="M17.2,19.3a24.1,24.1,0,0,1-.8,2.5,39.1,39.1,0,0,1-1.9,5l-.8,1.6c-.2.3-.4.4-.4.7s.7.7,1,.5.1-.3.3-1a3.6,3.6,0,0,1,.3-.7,8.9,8.9,0,0,1,.5-1l.8-1.7,1.1-2.9a9.8,9.8,0,0,1,.5-1.6c.3-.9.5-1.3.3-1.9s-.3-.6-.4-.6S17.3,18.7,17.2,19.3Z" transform="translate(-1.1 -0.6)"/>
  <path class="cls-7" d="M23.3,20.5a25.5,25.5,0,0,1,2.4,2.3l1.6,1.6v1.2l-2.9-2.7-2.1-2.3Z" transform="translate(-1.1 -0.6)"/>
  <path class="cls-7" d="M20.9,20.5l3.3,3.7a40.4,40.4,0,0,0,3,2.9v.5l-.3.8-3.6-3.8-2.7-3.1v-.3a2.2,2.2,0,0,1,.1-.6Z" transform="translate(-1.1 -0.6)"/>
  <path class="cls-2" d="M30.6,17.9c0,1.3.1,2.6,0,4a52.8,52.8,0,0,1-.9,8.5h.9l.3-.6a32.5,32.5,0,0,0,.5-5.9A26.6,26.6,0,0,0,30.6,17.9Z" transform="translate(-1.1 -0.6)"/>
  <path class="cls-2" d="M22.9,36.9a4.6,4.6,0,0,0,2.6-.3,5.7,5.7,0,0,0,3-2.6,7.5,7.5,0,0,0,.9-1.8l1,.2a6,6,0,0,1-.5,1.4l-.3.5h0l-.9,1a7.5,7.5,0,0,1-2,1.3l-1.5.4A5.4,5.4,0,0,1,22.9,36.9Z" transform="translate(-1.1 -0.6)"/>
  <path class="cls-7" d="M22.2,25.2l1.5,1.7,2.5,2.6-.3.2a1.1,1.1,0,0,0-.3.6,28.1,28.1,0,0,1-2.9-3c-.8-1-1.5-1.9-2.1-2.8V23.3l.6.6A9.1,9.1,0,0,0,22.2,25.2Z" transform="translate(-1.1 -0.6)"/>
  <path class="cls-2" d="M34.5,19.4l2.1,2.9A27.1,27.1,0,0,1,38.2,25a6.5,6.5,0,0,1,.8,1.7c0,.2.1.6.3.7a.5.5,0,0,0,.6-.2c.2-.3-.1-.9-.6-1.6s-1.7-2.8-1.7-2.9c-1.4-2-1.4-1.8-2.1-2.9s-1.5-2.6-1.7-2.5,0,.7,0,1Z" transform="translate(-1.1 -0.6)"/>
  <path class="cls-2" d="M38.8,30.6H38l-.9.4a11,11,0,0,1-2.9.8l-1.7.3a7.7,7.7,0,0,1-3-.1,6.5,6.5,0,0,1-2-.9,6,6,0,0,0,3,1.3,11.2,11.2,0,0,0,2.9-.2,12.9,12.9,0,0,0,4.4-1.1A3.1,3.1,0,0,0,38.8,30.6Z" transform="translate(-1.1 -0.6)"/>
  <path class="cls-3" d="M28.3,55.5a2.2,2.2,0,0,1,1.5.2,1.4,1.4,0,0,1-.8,2.6,1.6,1.6,0,0,1-1.8-1.4A1.6,1.6,0,0,1,28.3,55.5Z" transform="translate(-1.1 -0.6)"/>
  <path class="cls-3" d="M34.6,18.1a2.3,2.3,0,0,1-.3.9,2.7,2.7,0,0,1-1.3.9,2.7,2.7,0,0,1-2.2-.5c0-.1-.1-.1-.1-.2s-.1-.2-.1-.3l1,.4a2.2,2.2,0,0,0,1.4.1,1.8,1.8,0,0,0,.8-.6l.3-.7c0-.1.1-.2.1-.4v-.1l.2.4Z" transform="translate(-1.1 -0.6)"/>
  <path class="cls-3" d="M15.2,17a1.8,1.8,0,0,0,.1.6,2.7,2.7,0,0,0,.8,1.1,1.9,1.9,0,0,0,.8.4h1.2q.3-.2.3-.3h-.5l-1.5-.3a1.7,1.7,0,0,1-.6-.6,3.6,3.6,0,0,1-.3-.7v-.3h0a1,1,0,0,1,.1-.4l-.2.2h0c0,.1-.1.1-.1.2A.4.4,0,0,1,15.2,17Z" transform="translate(-1.1 -0.6)"/>
  <path class="cls-4" d="M29.6,17.7a1.6,1.6,0,0,0,.3.6l.8,1.3.3.4a6.7,6.7,0,0,1,.6,1.1l-.2-.4a6.9,6.9,0,0,1-.3-.8,2.7,2.7,0,0,0-.4-.8.9.9,0,0,0-.3-.5A2.5,2.5,0,0,0,29.6,17.7Z" transform="translate(-1.1 -0.6)"/>
  <path class="cls-4" d="M18.3,18.9a4.4,4.4,0,0,1-.2,1c-.1.2-.1.4-.2.5a.6.6,0,0,0-.1.4l-.2.6.2-1.1a5.2,5.2,0,0,0,.2-1.1.7.7,0,0,1,.1-.5h.2Z" transform="translate(-1.1 -0.6)"/>
  <path class="cls-4" d="M30.9,30.2V30h0c0,.1-.1.1-.1.2h0l-.3.3-1.7-.3a1.9,1.9,0,0,1-.9-.4c-.1.1-.2.2-.2.3a1.6,1.6,0,0,0-.3.8s-.1.2,0,.2l.3-.6.4-.5.9.3,1.7.3C30.7,30.5,30.8,30.4,30.9,30.2Z" transform="translate(-1.1 -0.6)"/>
  <path class="cls-4" d="M26.7,12.5l-.5.5-.8.6-.7.3h-.9a1.9,1.9,0,0,1-1-.4,2.4,2.4,0,0,1-.8-.9,8.6,8.6,0,0,1-.7-1l.6.7a2.7,2.7,0,0,0,1,.9,1.7,1.7,0,0,0,1,.3h.5l1.1-.3Z" transform="translate(-1.1 -0.6)"/>
  <path class="cls-4" d="M27.4,31.2a3.9,3.9,0,0,0,1.8,1.2,3,3,0,0,0,1.2.2h-.6l-.7-.2C28,31.7,27.4,31.1,27.4,31.2Z" transform="translate(-1.1 -0.6)"/>
  <path class="cls-3" d="M27.1,21.2a17.1,17.1,0,0,1,.4,2.7v2.3a6.5,6.5,0,0,1-.3,2.2,5.4,5.4,0,0,1-.7,1.4,1.9,1.9,0,0,1-.8.7,2.8,2.8,0,0,1-1.3.5,3.5,3.5,0,0,1-1.8-.3,3.5,3.5,0,0,1-1.5-1.8,2.5,2.5,0,0,0,1.1,1.3l1.1.3a2.6,2.6,0,0,0,.9,0,3.2,3.2,0,0,0,1.3-.4,2,2,0,0,0,1.1-1,3.6,3.6,0,0,0,.4-.9l.2-1C27.3,25.7,27,21.2,27.1,21.2Z" transform="translate(-1.1 -0.6)"/>
  <path class="cls-4" d="M27,20.5a13.7,13.7,0,0,0,.2,1.6c.1,1.1.1,2,.1,2.2a11,11,0,0,1-.3,3.8,3.9,3.9,0,0,1-.6,1.3,2.7,2.7,0,0,1-1.9,1.1,2.9,2.9,0,0,1-2.3-.3A3.5,3.5,0,0,1,21,28.8c-.4-.7-.5-1.5-.6-3.8V20.8h.1V25a4.5,4.5,0,0,0,.1,1.3,10.4,10.4,0,0,0,.1,1.1,8.2,8.2,0,0,0,.5,1.4,2.8,2.8,0,0,0,1,1.2,3.4,3.4,0,0,0,1.5.4h1.1a3.1,3.1,0,0,0,1.2-.7,3.3,3.3,0,0,0,.7-1.3A4,4,0,0,0,27,27a9.7,9.7,0,0,0,.1-1.8V22.7a18.3,18.3,0,0,0-.2-2.1A.1.1,0,0,1,27,20.5Z" transform="translate(-1.1 -0.6)"/>
  <path class="cls-4" d="M27,20.3H20.5v.2l6.5-.2Z" transform="translate(-1.1 -0.6)"/>
  <path class="cls-3" d="M19,55.3a1.7,1.7,0,0,1,1.5.2,1.6,1.6,0,0,1,.6,1.9,1.9,1.9,0,0,1-1.4.9,1.8,1.8,0,0,1-1.9-1.4A1.6,1.6,0,0,1,19,55.3Z" transform="translate(-1.1 -0.6)"/>
  <path class="cls-8" d="M24.6,35.9A8.9,8.9,0,0,1,21.5,34a13.5,13.5,0,0,1-2.8-3.8,6.6,6.6,0,0,0,2.1,4.1A7.2,7.2,0,0,0,24.6,35.9Z" transform="translate(-1.1 -0.6)"/>
  <path class="cls-8" d="M15,18.9a20.8,20.8,0,0,1-.6,3.2,26,26,0,0,1-1,3.5,12.9,12.9,0,0,1,.5-3.9C14.2,20.2,14.8,18.8,15,18.9Z" transform="translate(-1.1 -0.6)"/>
  <path class="cls-8" d="M36.2,29.6a3.5,3.5,0,0,1-2,.9,4.5,4.5,0,0,1-2.8-.2c0-.1,1,.1,2.5-.1A11.6,11.6,0,0,0,36.2,29.6Z" transform="translate(-1.1 -0.6)"/>
  <path class="cls-8" d="M34.5,34.4" transform="translate(-1.1 -0.6)"/>
  <path class="cls-8" d="M26.6,40.7a11.3,11.3,0,0,0-.2,2.3,36.7,36.7,0,0,0,.6,8,21.5,21.5,0,0,0,.8,3.3,30.2,30.2,0,0,0-.4-4.3C26.8,44.2,26.8,40.7,26.6,40.7Z" transform="translate(-1.1 -0.6)"/>
  <path class="cls-8" d="M17.8,40.2a11.3,11.3,0,0,0-.2,2.3,36.7,36.7,0,0,0,.6,8,21.5,21.5,0,0,0,.8,3.3,30.2,30.2,0,0,0-.4-4.3C18,43.7,18,40.2,17.8,40.2Z" transform="translate(-1.1 -0.6)"/>
  <path class="cls-8" d="M27.3,60a7.6,7.6,0,0,0-.2,2.2,40,40,0,0,0,.3,7.1,33.3,33.3,0,0,0,.8,4.3,33.3,33.3,0,0,0-.3-5.1C27.6,62.6,27.5,60,27.3,60Z" transform="translate(-1.1 -0.6)"/>
  <path class="cls-8" d="M17.8,60a10.8,10.8,0,0,0-.3,2.2,29.8,29.8,0,0,0,.1,7.1,25.1,25.1,0,0,0,.7,4.3,48.3,48.3,0,0,0-.1-5.1C18,62.6,18,60,17.8,60Z" transform="translate(-1.1 -0.6)"/>
  <path class="cls-8" d="M10.7,26.8a13.7,13.7,0,0,1-1.6-2.1L7.4,22.2c.1-.1,1,.9,1.9,2.1A8.1,8.1,0,0,1,10.7,26.8Z" transform="translate(-1.1 -0.6)"/>
  <path class="cls-8" d="M29.7,32l-1.1-.3-.9-.5V31h.1l.5.3.4.2.9.3v.2Z" transform="translate(-1.1 -0.6)"/>
  <path class="cls-8" d="M3.6,20l-1.1-.3h-1a.1.1,0,0,0,0,.2H2.6l.9.2a.3.3,0,0,0,.1-.2Z" transform="translate(-1.1 -0.6)"/>
  <path class="cls-5" d="M31.1,14.5a2.6,2.6,0,0,1,2.8.7,2.8,2.8,0,0,1,.6,2.8A2.7,2.7,0,0,1,32,19.5a2.7,2.7,0,0,1-2.5-2.6A2.6,2.6,0,0,1,31.1,14.5Z" transform="translate(-1.1 -0.6)"/>
  <path class="cls-5" d="M38.4,26.8a2.7,2.7,0,0,1,2.2.3,2.3,2.3,0,0,1,.8,2.9,2.3,2.3,0,0,1-2,1.3,2.5,2.5,0,0,1-2.7-2.2A2.6,2.6,0,0,1,38.4,26.8Z" transform="translate(-1.1 -0.6)"/>
  <path class="cls-5" d="M11.6,27.8a2.7,2.7,0,0,1,2.2.3,2.3,2.3,0,0,1,.8,2.9,2.3,2.3,0,0,1-2,1.3,2.5,2.5,0,0,1-2.7-2.2A2.5,2.5,0,0,1,11.6,27.8Z" transform="translate(-1.1 -0.6)"/>
  <path class="cls-5" d="M25.7,78.6a2.3,2.3,0,0,1,0-1.7,2.9,2.9,0,0,1,1.2-1.4,4.4,4.4,0,0,1,2.3-.6,5.6,5.6,0,0,1,2.8.6A3.3,3.3,0,0,1,33.3,77a2.5,2.5,0,0,1-.1,1.6Q29.3,78.8,25.7,78.6Z" transform="translate(-1.1 -0.6)"/>
  <path class="cls-5" d="M15.5,78.7a2.3,2.3,0,0,1,0-1.7,2.9,2.9,0,0,1,1.2-1.4A3.5,3.5,0,0,1,19,75a5.6,5.6,0,0,1,2.8.6,3.3,3.3,0,0,1,1.3,1.5,2.5,2.5,0,0,1-.1,1.6Z" transform="translate(-1.1 -0.6)"/>
  <path class="cls-5" d="M28.3,54.8a1.7,1.7,0,0,1,1.5.2,1.9,1.9,0,0,1,.6,2.1A1.5,1.5,0,0,1,29,58a1.8,1.8,0,0,1-1.9-1.6A1.7,1.7,0,0,1,28.3,54.8Z" transform="translate(-1.1 -0.6)"/>
  <path class="cls-5" d="M19,54.7a1.7,1.7,0,0,1,1.5.2,1.9,1.9,0,0,1,.6,2.1,1.5,1.5,0,0,1-1.4.9,1.8,1.8,0,0,1-1.9-1.6A1.7,1.7,0,0,1,19,54.7Z" transform="translate(-1.1 -0.6)"/>
  <path class="cls-5" d="M17.1,13.9a2.6,2.6,0,0,1,2.8.7,2.8,2.8,0,0,1,.6,2.8A2.5,2.5,0,0,1,18,18.9a2.7,2.7,0,0,1-2.5-2.6A2.5,2.5,0,0,1,17.1,13.9Z" transform="translate(-1.1 -0.6)"/>
  <path class="cls-5" d="M22.3,5.6a1.1,1.1,0,0,1,0,1.4h-.6a1.1,1.1,0,0,1,0-1.5H22Z" transform="translate(-1.1 -0.6)"/>
  <path class="cls-5" d="M24.7,5.6a1.1,1.1,0,0,1,0,1.4h-.6a1.1,1.1,0,0,1,0-1.5h.3Z" transform="translate(-1.1 -0.6)"/>
  <path class="cls-9" d="M23.7,10.4l-.5.2-.5-.2-.4-.2V10c-.1,0-.1.1-.1.2a.3.3,0,0,0,.1.2v.2h1.2c.1,0,.2,0,.2-.1l.4-.3a.4.4,0,0,0,.1-.3H24c-.1.1-.1.1-.1.2Z" transform="translate(-1.1 -0.6)"/>
  <path class="cls-8" d="M25.8,1.9A11.4,11.4,0,0,1,27,3.1a6.9,6.9,0,0,1,.9,2.2A3.2,3.2,0,0,0,27.3,3C26.7,2.1,25.8,1.8,25.8,1.9Z" transform="translate(-1.1 -0.6)"/>
  <path class="cls-10" d="M31.9,14.9a1.5,1.5,0,0,0-1.5.7,1.5,1.5,0,0,0,.3,1.7c.2,0,0-.8.6-1.6S31.9,15,31.9,14.9Z" transform="translate(-1.1 -0.6)"/>
  <path class="cls-10" d="M17.7,14.5a1.5,1.5,0,0,0-1.5.7,1.5,1.5,0,0,0,.3,1.7c.2,0,0-.8.6-1.6S17.7,14.6,17.7,14.5Z" transform="translate(-1.1 -0.6)"/>
  <path class="cls-10" d="M37.7,28.2a1.7,1.7,0,0,0-.4,1.5,1.6,1.6,0,0,0,1.5.9c0-.1-.5-.3-.9-1S37.8,28.2,37.7,28.2Z" transform="translate(-1.1 -0.6)"/>
  <path class="cls-10" d="M11,29c-.1-.1-.9.7-.8,1.5a1.5,1.5,0,0,0,1.3,1.1c.1-.1-.6-.5-.7-1.3A3.8,3.8,0,0,1,11,29Z" transform="translate(-1.1 -0.6)"/>
  <path class="cls-10" d="M17,35.2a3.3,3.3,0,0,0,1,2.6c1.2,1,2.9.7,2.9.5a16.3,16.3,0,0,1-1.9-.8A7,7,0,0,1,17,35.2Z" transform="translate(-1.1 -0.6)"/>
  <path class="cls-10" d="M26.5,37.5a2.2,2.2,0,0,0,1.7,1.4,2.5,2.5,0,0,0,2.3-.8c0-.1-.7.2-1.7.2A6.9,6.9,0,0,1,26.5,37.5Z" transform="translate(-1.1 -0.6)"/>
  <path class="cls-10" d="M32.6,76.4a5.6,5.6,0,0,0-3.1-1,4.8,4.8,0,0,0-2.9.9,20.5,20.5,0,0,1,3.2-.4A9.4,9.4,0,0,1,32.6,76.4Z" transform="translate(-1.1 -0.6)"/>
  <path class="cls-10" d="M22.2,76.4a5.6,5.6,0,0,0-3.1-1,4.8,4.8,0,0,0-2.9.9,20.5,20.5,0,0,1,3.2-.4A13,13,0,0,1,22.2,76.4Z" transform="translate(-1.1 -0.6)"/>
  <path class="cls-10" d="M27.9,55.3a1.6,1.6,0,0,0-.4,1.4.9.9,0,0,0,.6.7l-.4-.7A2.2,2.2,0,0,1,27.9,55.3Z" transform="translate(-1.1 -0.6)"/>
  <path class="cls-10" d="M18.5,55.2a1.6,1.6,0,0,0-.4,1.4.9.9,0,0,0,.6.7l-.4-.7A3.2,3.2,0,0,1,18.5,55.2Z" transform="translate(-1.1 -0.6)"/>
  <path class="cls-6" d="M41,27.5a3.1,3.1,0,0,1,0,2.6,2.6,2.6,0,0,1-1.8,1.2,2.4,2.4,0,0,0,1.8-.6,2.2,2.2,0,0,0,.6-1.4A2.8,2.8,0,0,0,41,27.5Z" transform="translate(-1.1 -0.6)"/>
  <path class="cls-6" d="M14.3,28.7a2.4,2.4,0,0,1-.4,2.8,2.6,2.6,0,0,1-3.1.3,2.4,2.4,0,0,0,3.4.1A2.4,2.4,0,0,0,14.3,28.7Z" transform="translate(-1.1 -0.6)"/>
  <path class="cls-6" d="M33.9,15.2a3.5,3.5,0,0,1,.5,2,2.7,2.7,0,0,1-.8,1.5,2.4,2.4,0,0,1-2.3.6,2.3,2.3,0,0,0,2.1-.2,2.5,2.5,0,0,0,1.2-1.4A2.7,2.7,0,0,0,33.9,15.2Z" transform="translate(-1.1 -0.6)"/>
  <path class="cls-6" d="M19.6,14.4a2.7,2.7,0,0,1-2.8,4.2,2.4,2.4,0,0,0,2,.1,2.6,2.6,0,0,0,1.7-1.9A2.4,2.4,0,0,0,19.6,14.4Z" transform="translate(-1.1 -0.6)"/>
  <path class="cls-6" d="M24.6,5.5a1.4,1.4,0,0,1,.2.9c-.1.4-.3.7-.4.7l.2-.2a.6.6,0,0,0,.4-.5,1.4,1.4,0,0,0-.2-.7C24.8,5.6,24.7,5.6,24.6,5.5Z" transform="translate(-1.1 -0.6)"/>
  <path class="cls-6" d="M22.2,5.5a1.4,1.4,0,0,1,.2.9,1.7,1.7,0,0,1-.4.7h.2a1.5,1.5,0,0,0,.3-.6,1,1,0,0,0-.1-.7C22.4,5.6,22.3,5.6,22.2,5.5Z" transform="translate(-1.1 -0.6)"/>
  <path class="cls-6" d="M33.2,78.4H29.8l-4.3-.2v.4H33Z" transform="translate(-1.1 -0.6)"/>
  <path class="cls-6" d="M23.1,78.4H19.7l-4.3-.2v.4h7.4Z" transform="translate(-1.1 -0.6)"/>
  <path class="cls-6" d="M30,55.1a1.9,1.9,0,0,1,.2,1.7A2.2,2.2,0,0,1,28.8,58a1.9,1.9,0,0,0,1.5-.7A1.9,1.9,0,0,0,30,55.1Z" transform="translate(-1.1 -0.6)"/>
  <path class="cls-6" d="M20.7,55a1.9,1.9,0,0,1,.2,1.7,2.2,2.2,0,0,1-1.4,1.2,1.9,1.9,0,0,0,1.5-.7A1.9,1.9,0,0,0,20.7,55Z" transform="translate(-1.1 -0.6)"/>
  <path class="cls-3" d="M36.6,28.7a1.5,1.5,0,0,0,.2,1.6l.6.6.6.2c0-.1-.2-.2-.5-.7s-.6-.8-.6-1.1.1-.7,0-.8Z" transform="translate(-1.1 -0.6)"/>
  <path class="cls-4" d="M30.7,57.6c0,.1-.1.1-.2,0s-.1-.1,0-.2.1-.1.2,0S30.8,57.6,30.7,57.6Z" transform="translate(-1.1 -0.6)"/>
  <path class="cls-4" d="M29,58.6c0,.1-.1.1-.2,0s-.1-.1,0-.2.1-.1.2,0Z" transform="translate(-1.1 -0.6)"/>
  <path class="cls-4" d="M27.1,57.6c0,.1-.1.1-.2,0s-.1-.1,0-.2.1-.1.2,0S27.2,57.6,27.1,57.6Z" transform="translate(-1.1 -0.6)"/>
  <path class="cls-4" d="M21.4,57.6c0,.1-.1.1-.2,0s-.1-.1,0-.2.1-.1.2,0S21.5,57.6,21.4,57.6Z" transform="translate(-1.1 -0.6)"/>
  <path class="cls-4" d="M19.6,58.5c0,.1-.1.1-.2,0s-.1-.1,0-.2h.2Z" transform="translate(-1.1 -0.6)"/>
  <path class="cls-4" d="M17.8,57.5c0,.1-.1.1-.2,0s-.1-.1,0-.2h.2C17.9,57.4,17.9,57.4,17.8,57.5Z" transform="translate(-1.1 -0.6)"/>
  <path class="cls-4" d="M27.8,22c0,.1-.1.1-.2,0s-.1-.1,0-.2.1-.1.2,0S27.9,21.9,27.8,22Z" transform="translate(-1.1 -0.6)"/>
  <path class="cls-4" d="M28,24.9c0,.1-.1.1-.2,0s-.1-.1,0-.2H28Z" transform="translate(-1.1 -0.6)"/>
  <path class="cls-4" d="M27.8,28.2c0,.1-.1.1-.2,0s-.1-.1,0-.2.1-.1.2,0S27.9,28.1,27.8,28.2Z" transform="translate(-1.1 -0.6)"/>
  <path class="cls-4" d="M26.8,30.3h-.2c-.1,0-.1-.1,0-.2s.1-.1.2,0Z" transform="translate(-1.1 -0.6)"/>
  <path class="cls-4" d="M24.2,31.4c0,.1-.1.1-.2,0s-.1-.1,0-.2h.2C24.3,31.2,24.3,31.3,24.2,31.4Z" transform="translate(-1.1 -0.6)"/>
  <path class="cls-4" d="M20,22c0,.1.1.1.2,0s.1-.1,0-.2-.1-.1-.2,0Z" transform="translate(-1.1 -0.6)"/>
  <path class="cls-4" d="M20,24.9c0,.1.1.1.2,0s.1-.1,0-.2H20Z" transform="translate(-1.1 -0.6)"/>
  <path class="cls-4" d="M20.2,28.1h.2c.1,0,.1-.1,0-.2h-.2C20.1,27.9,20.1,28,20.2,28.1Z" transform="translate(-1.1 -0.6)"/>
  <path class="cls-4" d="M21,29.8h.2c.1,0,.1-.1,0-.2s-.1-.1-.2,0Z" transform="translate(-1.1 -0.6)"/>
  <path class="cls-2" d="M28.5,7.5a10.9,10.9,0,0,1-1.3,4.4l.5-.8a7,7,0,0,0,1.1-2.3,7,7,0,0,0,.3-2.2,11.1,11.1,0,0,0-.2-2.3,5.2,5.2,0,0,0-.8-1.9A4.6,4.6,0,0,0,25.3.7a6.8,6.8,0,0,1,2.5,2.4A7.4,7.4,0,0,1,28.5,7.5Z" transform="translate(-1.1 -0.6)"/>
</svg>
